<?xml version="1.0" standalone="no"?>
<!DOCTYPE svg PUBLIC "-//W3C//DTD SVG 20010904//EN"
 "http://www.w3.org/TR/2001/REC-SVG-20010904/DTD/svg10.dtd">
<svg version="1.0" xmlns="http://www.w3.org/2000/svg"
 width="693.000000pt" height="591.000000pt" viewBox="0 0 693.000000 591.000000"
 preserveAspectRatio="xMidYMid meet">

<g transform="translate(0.000000,591.000000) scale(0.100000,-0.100000)"
fill="#000000" stroke="none">
<path d="M2385 4940 c-224 -45 -436 -162 -601 -332 -141 -144 -232 -305 -293
-513 l-26 -90 0 -1250 0 -1250 26 -55 c66 -138 196 -237 337 -256 29 -3 53 -5
54 -3 1 2 5 587 8 1299 l5 1295 33 67 c50 102 136 165 259 191 62 13 139 1
209 -33 30 -15 202 -180 567 -543 288 -287 531 -528 541 -536 16 -13 65 33
554 521 342 342 552 543 577 556 58 28 141 45 190 39 122 -17 232 -93 282
-195 l28 -57 5 -1300 c3 -715 7 -1302 8 -1304 1 -2 27 0 58 4 177 22 330 170
363 351 14 72 15 2202 1 2350 -25 279 -133 520 -322 715 -164 170 -370 283
-605 330 -90 18 -151 19 -1131 18 -959 -1 -1044 -2 -1127 -19z"/>
<path d="M1080 3589 c-273 -73 -485 -285 -562 -565 -19 -71 -21 -105 -22 -344
-1 -298 8 -364 69 -497 47 -102 87 -158 172 -240 139 -135 292 -204 471 -215
l57 -3 3 943 2 942 -57 -1 c-32 0 -92 -9 -133 -20z"/>
<path d="M5772 2669 l3 -944 50 3 c291 16 548 207 662 492 43 107 63 249 63
448 0 310 -46 480 -172 639 -140 177 -330 284 -531 300 l-77 6 2 -944z"/>
<path d="M2707 2660 c-97 -25 -183 -101 -213 -192 -21 -66 -15 -167 14 -225
27 -52 84 -107 142 -135 64 -32 177 -31 241 0 100 49 159 134 167 243 6 86
-16 152 -70 214 -70 79 -185 118 -281 95z"/>
<path d="M4198 2660 c-45 -11 -101 -46 -145 -90 -81 -81 -102 -215 -50 -323
30 -60 85 -114 146 -143 50 -25 183 -25 232 -1 61 30 116 85 145 143 36 74 38
179 4 249 -28 57 -91 120 -147 146 -50 23 -135 31 -185 19z"/>
<path d="M4065 1570 c-55 -21 -158 -54 -230 -72 -128 -32 -133 -33 -360 -33
l-230 0 -114 33 c-63 18 -149 49 -190 68 -41 19 -79 33 -84 31 -4 -1 32 -43
82 -92 107 -106 238 -192 354 -232 74 -25 95 -28 217 -28 122 0 143 3 216 28
109 37 226 107 328 195 88 76 147 143 124 141 -7 -1 -58 -18 -113 -39z"/>
</g>
</svg>
