<?xml version="1.0" standalone="no"?>
<!DOCTYPE svg PUBLIC "-//W3C//DTD SVG 20010904//EN"
 "http://www.w3.org/TR/2001/REC-SVG-20010904/DTD/svg10.dtd">
<svg version="1.0" xmlns="http://www.w3.org/2000/svg"
 width="854.000000pt" height="234.000000pt" viewBox="0 0 854.000000 234.000000"
 preserveAspectRatio="xMidYMid meet">

<g transform="translate(0.000000,234.000000) scale(0.100000,-0.100000)"
fill="#000000" stroke="none">
<path d="M2125 1680 c-118 -13 -200 -48 -249 -107 -46 -55 -56 -101 -56 -267
0 -138 2 -155 24 -201 28 -60 46 -77 111 -107 46 -21 64 -23 228 -23 l177 0 0
-36 c0 -24 -7 -42 -21 -55 -19 -17 -41 -19 -203 -22 -152 -3 -183 -6 -193 -20
-18 -22 -18 -222 0 -246 12 -16 34 -17 277 -14 304 5 333 11 407 86 69 70 76
104 81 418 4 296 -4 392 -41 458 -42 77 -134 118 -297 136 -106 11 -143 11
-245 0z m217 -287 c14 -12 18 -31 18 -77 0 -34 -4 -67 -9 -74 -21 -33 -137
-36 -173 -4 -27 23 -25 125 2 152 26 26 134 29 162 3z"/>
<path d="M4744 1679 c-107 -12 -181 -43 -235 -99 -42 -42 -48 -55 -59 -117 -8
-41 -11 -119 -8 -194 5 -152 25 -205 96 -250 65 -41 135 -52 299 -47 l143 4 0
-36 c0 -25 -7 -43 -21 -56 -19 -17 -41 -19 -203 -22 -152 -3 -183 -6 -193 -20
-9 -10 -13 -53 -13 -123 0 -86 3 -111 16 -124 15 -15 46 -16 278 -13 243 3
265 5 318 26 64 26 109 71 142 141 20 44 21 61 21 381 0 383 -3 401 -77 465
-88 75 -291 109 -504 84z m220 -285 c12 -11 16 -35 16 -84 0 -62 -3 -71 -22
-82 -13 -7 -50 -12 -82 -12 -76 1 -96 22 -96 100 0 76 20 94 104 94 45 0 69
-5 80 -16z"/>
<path d="M432 1648 c-17 -17 -17 -1039 0 -1056 15 -15 285 -17 308 -2 13 8 16
54 20 277 l5 268 43 -77 c52 -94 70 -108 139 -108 81 0 97 11 143 95 23 41 46
77 51 81 5 3 9 -97 9 -245 0 -140 4 -261 10 -276 l10 -26 157 3 158 3 3 529
c2 417 0 531 -10 538 -15 9 -299 11 -322 2 -9 -3 -50 -69 -92 -145 -79 -143
-95 -165 -117 -156 -7 3 -48 69 -91 146 -43 78 -86 146 -96 151 -28 15 -313
13 -328 -2z"/>
<path d="M3050 1641 c-6 -13 -10 -195 -10 -521 0 -326 4 -508 10 -521 10 -17
23 -19 161 -19 l149 0 10 26 c6 14 10 137 10 275 0 168 3 248 10 244 6 -4 24
-34 41 -67 47 -94 66 -108 141 -108 80 0 97 11 144 100 21 39 41 70 45 70 4 0
9 -117 11 -260 2 -218 5 -262 18 -270 8 -5 81 -10 162 -10 135 0 148 2 158 19
6 13 10 196 10 525 0 445 -2 506 -16 520 -13 13 -43 16 -168 16 -142 0 -154
-1 -172 -21 -10 -11 -51 -80 -90 -152 -94 -174 -92 -174 -191 3 -41 74 -82
143 -91 153 -13 15 -35 17 -173 17 -146 0 -159 -1 -169 -19z"/>
<path d="M5669 1634 c-6 -17 -9 -211 -7 -531 3 -435 5 -505 18 -513 24 -15
307 -13 317 3 4 6 10 84 13 172 l5 160 106 3 c155 4 153 6 157 -185 3 -97 8
-151 15 -155 7 -4 78 -8 159 -8 135 0 148 2 158 19 13 26 13 362 -1 421 -14
59 -49 103 -104 130 -25 12 -45 25 -45 29 0 4 9 16 20 26 28 26 40 77 40 176
0 104 -19 164 -66 213 -59 61 -94 66 -456 66 l-318 0 -11 -26z m493 -261 c14
-12 18 -31 18 -76 0 -84 -14 -97 -102 -97 l-68 0 0 95 0 95 67 0 c48 0 72 -5
85 -17z"/>
<path d="M7127 1647 c-18 -12 -162 -375 -194 -484 -21 -73 -32 -528 -14 -562
11 -20 20 -21 154 -21 78 0 147 4 154 8 8 5 13 47 15 127 l3 120 130 0 130 0
5 -118 c4 -90 9 -120 20 -127 8 -5 79 -10 156 -10 111 0 144 3 154 14 8 11 11
84 8 278 l-4 263 -31 85 c-82 225 -155 406 -170 422 -15 16 -37 18 -258 18
-178 0 -246 -3 -258 -13z m325 -392 c20 -60 37 -116 37 -122 1 -10 -27 -13
-107 -13 -60 0 -111 3 -115 6 -3 3 -2 16 3 27 5 12 20 60 34 106 31 101 40
113 80 109 30 -3 32 -7 68 -113z"/>
</g>
</svg>
