<?xml version="1.0" encoding="UTF-8"?>
<svg version="1.1" xmlns="http://www.w3.org/2000/svg" width="876" height="285">
<path d="M0 0 C0.89522369 -0.0049649 1.79044739 -0.00992981 2.71279907 -0.01504517 C5.66466046 -0.02960752 8.61646801 -0.0364607 11.56835938 -0.04199219 C13.08948586 -0.04623325 13.08948586 -0.04623325 14.64134216 -0.05056 C20.01317606 -0.06553272 25.38498325 -0.07477289 30.75683594 -0.07910156 C36.27296918 -0.08456769 41.78885329 -0.10856195 47.30490875 -0.13707352 C51.57406292 -0.15581696 55.84315864 -0.1609118 60.11235046 -0.16243744 C62.14386855 -0.16544069 64.1753862 -0.17338926 66.2068634 -0.18662262 C95.04017342 -0.36096426 95.04017342 -0.36096426 106.91210938 7.16113281 C107.73453125 7.67804687 108.55695313 8.19496094 109.40429688 8.72753906 C114.78890266 12.29863518 119.10103344 15.94540318 122.91210938 21.16113281 C123.42515625 21.85078125 123.93820312 22.54042969 124.46679688 23.25097656 C132.67713412 34.87207579 135.21574244 47.13928435 135.20263672 61.17529297 C135.20935394 62.22704208 135.21607117 63.2787912 135.22299194 64.3624115 C135.24185377 67.8083886 135.24588933 71.25416994 135.24804688 74.70019531 C135.25448006 77.11054563 135.2612088 79.52089518 135.26821899 81.9312439 C135.28016003 86.96948051 135.28390279 92.00764869 135.28271484 97.04589844 C135.28251116 103.49301234 135.30987914 109.93968791 135.34425926 116.38669777 C135.366515 121.3590394 135.37055288 126.33127501 135.36949539 131.30366135 C135.3718508 133.68065281 135.38067084 136.05764722 135.39616013 138.43458939 C135.41580437 141.7586258 135.40998878 145.08170923 135.39794922 148.40576172 C135.40918823 149.38051956 135.42042725 150.3552774 135.43200684 151.35957336 C135.37439801 157.63405928 134.11361646 161.80364656 130.91210938 167.16113281 C130.59433722 167.85109659 130.27656506 168.54106037 129.94916344 169.25193214 C127.71401633 173.3668038 123.53271196 174.94713192 119.28710938 176.41113281 C115.91210938 177.16113281 115.91210938 177.16113281 111.91210938 177.16113281 C111.89664818 175.67158585 111.89664818 175.67158585 111.88087463 174.15194702 C111.78130903 164.59825372 111.67847471 155.04459991 111.57277012 145.49097252 C111.5185775 140.58432851 111.46537497 135.67767878 111.41479492 130.77099609 C111.30687768 120.35820364 111.18517692 109.94580575 111.0312748 99.53358078 C110.9625087 94.86964686 110.90030053 90.20583868 110.85369873 85.54162598 C110.80858513 81.07590464 110.74447067 76.61084587 110.66612053 72.14558792 C110.64027553 70.49073025 110.62113662 68.83575249 110.60913277 67.18073654 C110.59152798 64.90867464 110.54962857 62.63829528 110.50170898 60.36669922 C110.47565834 58.45118759 110.47565834 58.45118759 110.44908142 56.49697876 C109.82018263 52.59005384 108.68795535 50.93263412 105.91210938 48.16113281 C100.80290292 45.72264791 95.12334281 45.1799226 89.66210938 46.84863281 C87.28079074 48.63462179 85.72184733 50.80298941 83.91210938 53.16113281 C82.26667157 54.84876133 80.59922361 56.51516771 78.91210938 58.16113281 C78.08710938 58.98613281 77.26210937 59.81113281 76.41210938 60.66113281 C75.58710938 61.48613281 74.76210937 62.31113281 73.91210938 63.16113281 C73.08710938 64.00675781 72.26210937 64.85238281 71.41210938 65.72363281 C68.91210938 68.16113281 68.91210938 68.16113281 66.34960938 70.16113281 C63.76733885 72.27991889 61.96320852 74.53316203 59.91210938 77.16113281 C58.26667157 78.84876133 56.59922361 80.51516771 54.91210938 82.16113281 C54.08710938 82.98613281 53.26210937 83.81113281 52.41210938 84.66113281 C51.58710938 85.48613281 50.76210937 86.31113281 49.91210938 87.16113281 C48.67460937 88.42957031 48.67460937 88.42957031 47.41210938 89.72363281 C40.83257121 96.13868252 40.83257121 96.13868252 37.34960938 96.22363281 C34.1393555 94.82429138 32.96197542 92.97969862 30.91210938 90.16113281 C28.51522984 87.64133638 26.12805271 85.33388748 23.41210938 83.16113281 C20.70210287 80.99312761 18.33489437 78.64448743 15.91210938 76.16113281 C14.64367187 74.92363281 14.64367187 74.92363281 13.34960938 73.66113281 C11.01761995 71.26934878 8.99695466 68.76718942 6.91210938 66.16113281 C4.51522984 63.64133638 2.12805271 61.33388748 -0.58789062 59.16113281 C-7.63334517 53.52476918 -7.63334517 53.52476918 -9.08789062 49.16113281 C-12.06292185 48.00277609 -12.06292185 48.00277609 -15.08789062 47.16113281 C-15.41789062 46.83113281 -15.74789062 46.50113281 -16.08789062 46.16113281 C-21.14908153 45.85746136 -25.34475758 46.33685087 -30.08789062 48.16113281 C-33.56559652 51.75476224 -34.20838789 55.24645715 -34.28407288 60.11552429 C-34.30227585 61.13776093 -34.32047882 62.15999756 -34.3392334 63.21321106 C-34.3543396 64.33386459 -34.3694458 65.45451813 -34.38500977 66.60913086 C-34.40466293 67.78975098 -34.4243161 68.97037109 -34.44456482 70.18676758 C-34.4975246 73.4240488 -34.5462644 76.66136084 -34.59314275 79.89873481 C-34.64312766 83.282057 -34.6984873 86.66529109 -34.75328064 90.04853821 C-34.85621974 96.45513124 -34.95431409 102.86178895 -35.05067486 109.26848394 C-35.16061403 116.56230765 -35.27594356 123.85604299 -35.39172947 131.14977586 C-35.62978785 146.15347084 -35.86106528 161.15726349 -36.08789062 176.16113281 C-40.57692754 177.4561491 -42.76027829 176.37956088 -46.90429688 174.39941406 C-51.64955182 171.70845554 -54.62716687 167.94535257 -57.08789062 163.16113281 C-59.6959105 148.1480752 -58.24439098 131.98889373 -58.21289062 116.78613281 C-58.2106155 115.36090094 -58.20837776 113.935669 -58.20617676 112.51043701 C-58.18925344 102.72719078 -58.14533338 92.94421791 -58.08789062 83.16113281 C-58.08164673 81.98389648 -58.07540283 80.80666016 -58.06896973 79.59375 C-58.03436997 73.53769148 -57.97794405 67.48278505 -57.87835693 61.4274292 C-57.85171734 59.68862311 -57.83124999 57.94970973 -57.81744385 56.21075439 C-57.73781915 47.23169104 -57.47554951 39.25072132 -53.08789062 31.16113281 C-52.71027588 30.45545166 -52.33266113 29.74977051 -51.94360352 29.02270508 C-43.70968027 14.32959374 -30.99116028 5.72107506 -15.08789062 1.16113281 C-10.02527767 0.10754428 -5.14543651 0.00688515 0 0 Z " fill="#414141" transform="translate(171.087890625,41.8388671875)"/>
<path d="M0 0 C0 29.7 0 59.4 0 90 C-11.4144373 90 -20.47676495 86.86760158 -29 79 C-37.79710292 69.56144166 -39.72223906 58.15514583 -39.5625 45.625 C-39.55516846 44.44413818 -39.54783691 43.26327637 -39.5402832 42.04663086 C-39.31288047 31.89327368 -37.99173021 21.92895946 -31 14 C-30.34 14 -29.68 14 -29 14 C-28.73832031 13.40445313 -28.47664063 12.80890625 -28.20703125 12.1953125 C-25.88613653 7.97413828 -21.8811009 5.0168113 -17.6875 2.75 C-11.74967701 1.09293312 -6.18161436 0 0 0 Z " fill="#737373" transform="translate(107,104)"/>
<path d="M0 0 C13.49498029 1.49944225 22.56158625 4.85631504 31.28979492 15.59667969 C37.81384234 24.76480571 38.76685613 34.08802339 38.5625 45.0625 C38.57345703 46.34705078 38.58441406 47.63160156 38.59570312 48.95507812 C38.49989103 61.4809124 35.50610907 70.73377055 27 80 C26.47664063 80.5775 25.95328125 81.155 25.4140625 81.75 C18.33901498 88.65248538 9.54313101 90 0 90 C0 60.3 0 30.6 0 0 Z " fill="#737373" transform="translate(312,104)"/>
<path d="M0 0 C4.19327374 0.15070762 5.65902692 0.47953598 8.73046875 3.54638672 C13.1171875 11.13913387 13.1171875 11.13913387 13.1171875 14.93701172 C13.7771875 14.93701172 14.4371875 14.93701172 15.1171875 14.93701172 C15.3440625 14.27701172 15.5709375 13.61701172 15.8046875 12.93701172 C17.60853818 8.81392446 19.89845274 4.15574648 23.1171875 0.93701172 C25.62854854 0.8372614 28.10622165 0.79818989 30.6171875 0.81201172 C31.31972656 0.80814453 32.02226563 0.80427734 32.74609375 0.80029297 C37.99057372 0.81039794 37.99057372 0.81039794 39.1171875 1.93701172 C40.33856688 13.39349336 40.24332465 24.93189492 40.1796875 36.43701172 C40.17465311 38.05029155 40.17009369 39.66357294 40.16601562 41.27685547 C40.1551851 45.16361386 40.1380321 49.05029467 40.1171875 52.93701172 C37.066124 53.95403289 34.87519689 54.10283255 31.6796875 54.12451172 C30.73222656 54.13869141 29.78476562 54.15287109 28.80859375 54.16748047 C26.1171875 53.93701172 26.1171875 53.93701172 22.1171875 51.93701172 C21.7871875 45.66701172 21.4571875 39.39701172 21.1171875 32.93701172 C19.7971875 34.25701172 18.4771875 35.57701172 17.1171875 36.93701172 C11.14659926 37.4517176 11.14659926 37.4517176 8.1171875 35.93701172 C7.7871875 34.94701172 7.4571875 33.95701172 7.1171875 32.93701172 C6.7871875 39.53701172 6.4571875 46.13701172 6.1171875 52.93701172 C3.37742865 53.85026467 1.63769969 54.10004702 -1.1953125 54.12451172 C-1.93394531 54.13869141 -2.67257812 54.15287109 -3.43359375 54.16748047 C-6.44657705 53.8839621 -9.03105242 52.92428172 -11.8828125 51.93701172 C-11.93339979 44.9953115 -11.96849829 38.05365856 -11.99267578 31.11181641 C-12.00275174 28.74884261 -12.01641279 26.38588133 -12.03369141 24.02294922 C-12.05786974 20.63229284 -12.06927949 17.24180087 -12.078125 13.85107422 C-12.08844757 12.7895816 -12.09877014 11.72808899 -12.10940552 10.63442993 C-12.10955658 9.65356415 -12.10970764 8.67269836 -12.10986328 7.66210938 C-12.11652512 6.36305161 -12.11652512 6.36305161 -12.12332153 5.03775024 C-11.4471958 -0.86790475 -4.60118381 0.12997116 0 0 Z " fill="#424242" transform="translate(502.8828125,64.06298828125)"/>
<path d="M0 0 C0.68578125 -0.020625 1.3715625 -0.04125 2.078125 -0.0625 C7.11267693 -0.10167939 7.11267693 -0.10167939 9.46875 1.515625 C10.71376406 3.38314609 11.77656032 5.22647185 12.75 7.25 C13.08257812 7.930625 13.41515625 8.61125 13.7578125 9.3125 C14.625 11.25 14.625 11.25 15.625 14.25 C16.285 14.25 16.945 14.25 17.625 14.25 C17.625 13.59 17.625 12.93 17.625 12.25 C18.285 12.25 18.945 12.25 19.625 12.25 C19.7075 11.54875 19.79 10.8475 19.875 10.125 C20.8707511 6.30795412 22.81659449 3.05840551 25.625 0.25 C27.74808153 0.15057194 29.87459672 0.12030816 32 0.125 C33.16273438 0.12242188 34.32546875 0.11984375 35.5234375 0.1171875 C38.625 0.25 38.625 0.25 41.625 1.25 C42.49092248 6.47477161 42.77206882 11.49038315 42.7578125 16.78125 C42.75876923 17.57599731 42.75972595 18.37074463 42.76071167 19.1895752 C42.76138841 20.86027099 42.75956962 22.5309695 42.75537109 24.20166016 C42.75001565 26.74257374 42.75533332 29.28331059 42.76171875 31.82421875 C42.76105788 33.45572955 42.75977653 35.08724025 42.7578125 36.71875 C42.75983673 37.46999146 42.76186096 38.22123291 42.76394653 38.99523926 C42.71049466 51.16450534 42.71049466 51.16450534 40.625 53.25 C38.31506618 53.37557162 36.00081464 53.42575729 33.6875 53.4375 C32.42035156 53.45167969 31.15320313 53.46585938 29.84765625 53.48046875 C26.625 53.25 26.625 53.25 24.625 51.25 C24.30615234 49.18701172 24.30615234 49.18701172 24.2109375 46.6796875 C24.15292969 45.33583984 24.15292969 45.33583984 24.09375 43.96484375 C24.0628125 43.02769531 24.031875 42.09054688 24 41.125 C23.94199219 39.70767578 23.94199219 39.70767578 23.8828125 38.26171875 C23.78838654 35.92467625 23.70281606 33.58764499 23.625 31.25 C23.33625 31.889375 23.0475 32.52875 22.75 33.1875 C21.625 35.25 21.625 35.25 19.625 36.25 C16.75 36.5625 16.75 36.5625 13.625 36.25 C11.4296875 34.23046875 11.4296875 34.23046875 9.625 32.25 C9.61041748 32.81509277 9.59583496 33.38018555 9.58081055 33.96240234 C9.50643942 36.51730019 9.40974758 39.07087498 9.3125 41.625 C9.28994141 42.51445313 9.26738281 43.40390625 9.24414062 44.3203125 C9.20869141 45.17109375 9.17324219 46.021875 9.13671875 46.8984375 C9.11053467 47.68395996 9.08435059 48.46948242 9.05737305 49.27880859 C8.625 51.25 8.625 51.25 5.625 53.25 C2.26953125 53.4453125 2.26953125 53.4453125 -1.5625 53.375 C-2.83480469 53.35695312 -4.10710937 53.33890625 -5.41796875 53.3203125 C-6.39378906 53.29710937 -7.36960937 53.27390625 -8.375 53.25 C-9.66413045 20.58910542 -9.66413045 20.58910542 -9 8.75 C-8.95689697 7.98131592 -8.91379395 7.21263184 -8.86938477 6.4206543 C-8.38475375 -0.62679191 -6.47187536 0.04811803 0 0 Z " fill="#424242" transform="translate(379.375,64.75)"/>
<path d="M0 0 C2.01508098 -0.00962772 4.02910744 -0.04059823 6.04394531 -0.07226562 C13.83688241 -0.10362553 19.37212241 -0.01957461 25.80957031 4.59570312 C27.36452474 6.90075881 27.47052528 8.7939328 27.66894531 11.55273438 C27.77529297 13.01839844 27.77529297 13.01839844 27.88378906 14.51367188 C27.91894531 17.24023438 27.91894531 17.24023438 27.23144531 20.67773438 C27.12832031 21.52335937 27.02519531 22.36898437 26.91894531 23.24023438 C28.73117066 25.30273377 28.73117066 25.30273377 30.91894531 27.24023438 C34.57763719 34.55761814 33.48802688 44.39482656 31.91894531 52.24023438 C30.91894531 53.24023438 30.91894531 53.24023438 27.82910156 53.37304688 C26.559375 53.37046875 25.28964844 53.36789063 23.98144531 53.36523438 C22.08072266 53.36910156 22.08072266 53.36910156 20.14160156 53.37304688 C16.91894531 53.24023438 16.91894531 53.24023438 14.91894531 52.24023438 C14.91894531 47.29023437 14.91894531 42.34023437 14.91894531 37.24023438 C11.28894531 37.24023438 7.65894531 37.24023438 3.91894531 37.24023438 C3.91894531 42.19023438 3.91894531 47.14023438 3.91894531 52.24023438 C1.20239129 53.59851139 -0.98894875 53.37257887 -4.01855469 53.36523438 C-5.07945312 53.3678125 -6.14035156 53.37039062 -7.23339844 53.37304688 C-10.08105469 53.24023438 -10.08105469 53.24023438 -13.08105469 52.24023438 C-14.38854308 35.31292935 -14.90782314 18.15475709 -13.08105469 1.24023438 C-10.49235578 -1.34846454 -3.50996309 0.01014929 0 0 Z M3.91894531 15.24023438 C3.91894531 17.55023438 3.91894531 19.86023438 3.91894531 22.24023438 C5.89894531 22.24023438 7.87894531 22.24023438 9.91894531 22.24023438 C9.91894531 19.93023437 9.91894531 17.62023437 9.91894531 15.24023438 C7.93894531 15.24023438 5.95894531 15.24023438 3.91894531 15.24023438 Z " fill="#424242" transform="translate(626.0810546875,64.759765625)"/>
<path d="M0 0 C3.14749343 4.15108939 3.38522881 7.35068139 3.3984375 12.49609375 C3.40130768 13.20725845 3.40417786 13.91842316 3.40713501 14.65113831 C3.40916907 16.14967651 3.40368529 17.64824167 3.39111328 19.14672852 C3.37507241 21.42720626 3.3909703 23.70590563 3.41015625 25.98632812 C3.40817323 27.44792054 3.40432835 28.90951186 3.3984375 30.37109375 C3.39505371 31.69036865 3.39166992 33.00964355 3.38818359 34.36889648 C2.97680431 38.2169745 1.94002235 40.68154072 0 44 C-0.66 44 -1.32 44 -2 44 C-2 44.66 -2 45.32 -2 46 C-9.13616856 50.01715667 -18.1437829 49.08985888 -26.125 49.125 C-27.26328247 49.13200928 -27.26328247 49.13200928 -28.42456055 49.13916016 C-33.8769694 49.1230306 -33.8769694 49.1230306 -35 48 C-35.07271741 45.64686445 -35.08370868 43.29166332 -35.0625 40.9375 C-35.05347656 39.64714844 -35.04445313 38.35679688 -35.03515625 37.02734375 C-35.02355469 36.02832031 -35.01195312 35.02929688 -35 34 C-28.65758005 32.84683274 -22.43311296 32.90492937 -16 33 C-16 32.34 -16 31.68 -16 31 C-16.78503906 31.02320313 -17.57007813 31.04640625 -18.37890625 31.0703125 C-33.45749554 31.32933121 -33.45749554 31.32933121 -39 26 C-40.33370041 21.99889877 -40.22335475 18.31496597 -40.25 14.125 C-40.270625 13.32191406 -40.29125 12.51882812 -40.3125 11.69140625 C-40.34376794 6.94649701 -40.06937455 3.85490169 -37 0 C-27.9415606 -7.76437663 -9.1130929 -7.45616692 0 0 Z M-22 11 C-21.67 12.65 -21.34 14.3 -21 16 C-19.02 16 -17.04 16 -15 16 C-15 14.35 -15 12.7 -15 11 C-18.58327753 9.99782936 -18.58327753 9.99782936 -22 11 Z " fill="#424242" transform="translate(596,69)"/>
<path d="M0 0 C0.92876953 0.00185303 1.85753906 0.00370605 2.81445312 0.00561523 C3.82894531 0.0049707 4.8434375 0.00432617 5.88867188 0.00366211 C6.94699219 0.02364258 8.0053125 0.04362305 9.09570312 0.06420898 C10.15402344 0.05711914 11.21234375 0.0500293 12.30273438 0.04272461 C20.07062449 0.10688126 20.07062449 0.10688126 22.32592773 1.80273438 C24.46800532 4.66885972 25.48031182 8.03282317 26.65820312 11.37670898 C27.16953175 12.7909126 27.68124191 14.20497834 28.19335938 15.61889648 C28.41515869 16.24393066 28.63695801 16.86896484 28.86547852 17.51293945 C29.59650432 19.58414446 29.59650432 19.58414446 30.67114258 21.84472656 C31.77124858 25.00618777 31.82271078 27.55240163 31.79101562 30.89624023 C31.78457031 32.09829102 31.778125 33.3003418 31.77148438 34.53881836 C31.75472656 35.78469727 31.73796875 37.03057617 31.72070312 38.31420898 C31.71167969 39.57942383 31.70265625 40.84463867 31.69335938 42.14819336 C31.66982706 45.26622462 31.63694858 48.38386996 31.59570312 51.50170898 C26.47178844 53.26182568 22.97992376 53.84907806 17.59570312 53.50170898 C16.27570312 52.84170898 14.95570313 52.18170898 13.59570312 51.50170898 C13.59570312 48.20170898 13.59570312 44.90170898 13.59570312 41.50170898 C9.14070312 41.99670898 9.14070312 41.99670898 4.59570312 42.50170898 C4.50482422 43.56711914 4.50482422 43.56711914 4.41210938 44.65405273 C4.32832031 45.5731543 4.24453125 46.49225586 4.15820312 47.43920898 C4.03638672 48.81399414 4.03638672 48.81399414 3.91210938 50.21655273 C3.59570312 52.50170898 3.59570312 52.50170898 2.59570312 53.50170898 C0.2857693 53.62728061 -2.02848224 53.67746627 -4.34179688 53.68920898 C-5.60894531 53.70338867 -6.87609375 53.71756836 -8.18164062 53.73217773 C-11.40429688 53.50170898 -11.40429688 53.50170898 -13.40429688 51.50170898 C-13.8949361 47.35560142 -13.77473259 43.17346912 -13.77929688 39.00170898 C-13.80378906 37.85444336 -13.82828125 36.70717773 -13.85351562 35.52514648 C-13.87951391 27.91631535 -12.64990001 22.34234489 -9.40429688 15.50170898 C-8.3867895 12.65816985 -7.4028909 9.80658239 -6.43164062 6.94702148 C-3.85057961 0.80350742 -3.85057961 0.80350742 0 0 Z M8.59570312 16.50170898 C6.29994709 18.79746502 6.27230713 19.51013424 5.97070312 22.62670898 C5.84695313 23.90545898 5.72320313 25.18420898 5.59570312 26.50170898 C7.90570312 26.50170898 10.21570313 26.50170898 12.59570312 26.50170898 C12.31442892 25.02053098 12.0203658 23.5417765 11.72070312 22.06420898 C11.47707031 20.82864258 11.47707031 20.82864258 11.22851562 19.56811523 C11.0196875 18.88620117 10.81085937 18.20428711 10.59570312 17.50170898 C9.93570313 17.17170898 9.27570312 16.84170898 8.59570312 16.50170898 Z " fill="#424242" transform="translate(683.404296875,64.498291015625)"/>
<path d="M0 0 C1.03318359 -0.020625 2.06636719 -0.04125 3.13085938 -0.0625 C13.27663995 -0.11456302 13.27663995 -0.11456302 17.6875 3.25 C22.13663781 8.96083361 22.22614128 13.80884271 22 20.875 C21.98090576 21.84687256 21.96181152 22.81874512 21.94213867 23.82006836 C21.89796732 25.75027625 21.84332376 27.68027777 21.77734375 29.60986328 C21.70027033 31.87473266 21.6568406 34.13654411 21.625 36.40234375 C21.33241392 44.38445763 21.33241392 44.38445763 18.3125 48.4375 C11.40386983 53.20774464 5.23729519 53.43027845 -2.9375 53.4375 C-3.67484375 53.44974609 -4.4121875 53.46199219 -5.171875 53.47460938 C-9.33786049 53.48580826 -12.56939529 53.12155235 -16.3125 51.25 C-16.33935938 49.10423363 -16.35883088 46.95837355 -16.375 44.8125 C-16.38660156 43.61753906 -16.39820313 42.42257813 -16.41015625 41.19140625 C-16.3125 38.25 -16.3125 38.25 -15.3125 37.25 C-12.45372091 37.01298761 -9.61366703 36.82780818 -6.75 36.6875 C-5.94369141 36.64431641 -5.13738281 36.60113281 -4.30664062 36.55664062 C-2.30881195 36.45024738 -0.3106793 36.34959112 1.6875 36.25 C0.74648438 36.22421875 -0.19453125 36.1984375 -1.1640625 36.171875 C-9.47180043 35.79346872 -13.96735082 35.47997656 -19.93359375 29.671875 C-22.03522687 25.98062135 -21.74783216 22.48547456 -21.6875 18.3125 C-21.69910156 17.51392578 -21.71070313 16.71535156 -21.72265625 15.89257812 C-21.69924119 11.18224756 -21.32183606 8.08873844 -18.3125 4.25 C-12.76609799 -0.60310176 -6.99989851 0.03454608 0 0 Z M-2.3125 14.25 C-3.59572547 15.3095877 -3.59572547 15.3095877 -3.4375 17.75 C-3.59572547 20.1904123 -3.59572547 20.1904123 -2.3125 21.25 C0.1875 21.41666667 0.1875 21.41666667 2.6875 21.25 C3.98383621 20.18354885 3.98383621 20.18354885 3.75 17.6875 C3.729375 16.883125 3.70875 16.07875 3.6875 15.25 C1.6960944 14.86866701 -0.30529077 14.53674418 -2.3125 14.25 Z " fill="#434343" transform="translate(456.3125,64.75)"/>
<path d="M0 0 C4.09811201 -0.47059659 7.92367716 -0.72091015 12 0 C14.50030747 2.33157507 15.7827771 4.82955897 17 8 C17.28230469 7.4225 17.56460938 6.845 17.85546875 6.25 C19.38775084 3.66174639 20.68022272 1.93819512 23 0 C26.21606445 -0.390625 26.21606445 -0.390625 29.73828125 -0.25 C31.49652222 -0.19585937 31.49652222 -0.19585937 33.2902832 -0.140625 C34.18448975 -0.09421875 35.07869629 -0.0478125 36 0 C36.0246501 5.10863896 36.04283607 10.21724359 36.05493164 15.32592773 C36.05997204 17.06519168 36.0668043 18.80445136 36.07543945 20.54370117 C36.08751792 23.03825937 36.09323108 25.53276173 36.09765625 28.02734375 C36.10281754 28.80963852 36.10797882 29.59193329 36.11329651 30.39793396 C36.11349226 32.26567114 36.06199694 34.13329204 36 36 C34.13775139 37.86224861 31.57468825 37.12354714 29.10546875 37.1328125 C27 37 27 37 23 36 C22.505 29.565 22.505 29.565 22 23 C21.01 23.66 20.02 24.32 19 25 C16.375 25.1875 16.375 25.1875 14 25 C13.67 24.67 13.34 24.34 13 24 C12.93941406 24.85464844 12.87882813 25.70929688 12.81640625 26.58984375 C12.73261719 27.69457031 12.64882813 28.79929688 12.5625 29.9375 C12.48128906 31.03964844 12.40007813 32.14179688 12.31640625 33.27734375 C12 36 12 36 11 37 C9.35769636 37.1245486 7.70947724 37.17568524 6.0625 37.1875 C5.16660156 37.20167969 4.27070312 37.21585938 3.34765625 37.23046875 C1 37 1 37 -1 35 C-1.24291992 33.17504883 -1.24291992 33.17504883 -1.23046875 30.95703125 C-1.22917969 30.13686523 -1.22789062 29.31669922 -1.2265625 28.47167969 C-1.21367188 27.59415039 -1.20078125 26.71662109 -1.1875 25.8125 C-1.18105469 24.92079102 -1.17460938 24.02908203 -1.16796875 23.11035156 C-1.07953915 15.38105161 -0.65344652 7.70133395 0 0 Z " fill="#BE71DF" transform="translate(642,153)"/>
<path d="M0 0 C4.021875 -0.04125 8.04375 -0.0825 12.1875 -0.125 C13.44715576 -0.14320801 14.70681152 -0.16141602 16.00463867 -0.18017578 C17.50861206 -0.18766846 17.50861206 -0.18766846 19.04296875 -0.1953125 C20.06414795 -0.20578613 21.08532715 -0.21625977 22.13745117 -0.22705078 C25.1885916 0.01495865 27.29067651 0.58646545 30 2 C33.16526414 6.74789621 32.32821514 11.79298137 32.3125 17.375 C32.32861328 18.51195312 32.34472656 19.64890625 32.36132812 20.8203125 C32.36197266 21.91859375 32.36261719 23.016875 32.36328125 24.1484375 C32.36626221 25.15052246 32.36924316 26.15260742 32.37231445 27.18505859 C31.93593936 30.48434047 31.00258262 32.35749547 29 35 C25.47755773 36.17414742 22.11179217 36.39257966 18.4375 36.625 C17.77169922 36.6765625 17.10589844 36.728125 16.41992188 36.78125 C10.68600317 37.15294349 5.90895811 36.59089581 0 36 C0 24.12 0 12.24 0 0 Z M14 12 C14 16.29 14 20.58 14 25 C15.65 25 17.3 25 19 25 C19.02696365 23.20841511 19.04637917 21.41671527 19.0625 19.625 C19.07410156 18.62726563 19.08570313 17.62953125 19.09765625 16.6015625 C19.18006602 14.01567547 19.18006602 14.01567547 18 12 C16.68 12 15.36 12 14 12 Z " fill="#BE72DF" transform="translate(369,153)"/>
<path d="M0 0 C3.45762569 -0.50090352 6.55920789 -0.67916942 10 0 C12.8785784 2.30690993 14.94483215 4.95127418 17 8 C17.66 5.36 18.32 2.72 19 0 C22.96 0 26.92 0 31 0 C31.0246501 5.10863896 31.04283607 10.21724359 31.05493164 15.32592773 C31.05997204 17.06519168 31.0668043 18.80445136 31.07543945 20.54370117 C31.08751792 23.03825937 31.09323108 25.53276173 31.09765625 28.02734375 C31.10281754 28.80963852 31.10797882 29.59193329 31.11329651 30.39793396 C31.11349226 32.26567114 31.06199694 34.13329204 31 36 C30 37 30 37 27.53125 37.1328125 C26.03078125 37.12894531 26.03078125 37.12894531 24.5 37.125 C23.4996875 37.12757813 22.499375 37.13015625 21.46875 37.1328125 C19 37 19 37 18 36 C17.60545777 34.15400312 17.25823134 32.29774178 16.9375 30.4375 C16.76089844 29.42558594 16.58429687 28.41367188 16.40234375 27.37109375 C16.26957031 26.58863281 16.13679687 25.80617187 16 25 C15.01 24.67 14.02 24.34 13 24 C12.67 27.63 12.34 31.26 12 35 C7.19222669 36.99346698 4.07902074 36.8636147 -1 36 C-1.02472039 31.35522856 -1.04286968 26.71049543 -1.05493164 22.06567383 C-1.05996014 20.48558892 -1.06678378 18.90550866 -1.07543945 17.32543945 C-1.08756992 15.05418754 -1.09324313 12.78299715 -1.09765625 10.51171875 C-1.10281754 9.80536789 -1.10797882 9.09901703 -1.11329651 8.3712616 C-1.11364803 5.29745609 -0.9803186 2.9409558 0 0 Z " fill="#BE72DE" transform="translate(725,153)"/>
<path d="M0 0 C3.1875 2.125 3.1875 2.125 4.1875 4.125 C4.48578882 8.57752636 4.4655761 13.03866238 4.5 17.5 C4.52900391 18.74523437 4.55800781 19.99046875 4.58789062 21.2734375 C4.59626953 22.4696875 4.60464844 23.6659375 4.61328125 24.8984375 C4.62786377 25.99591309 4.64244629 27.09338867 4.6574707 28.22412109 C4.07733068 31.80501656 3.02079069 32.93096832 0.1875 35.125 C-3.79272487 36.45174162 -7.45613761 36.38751364 -11.625 36.4375 C-12.81706055 36.48100586 -12.81706055 36.48100586 -14.03320312 36.52539062 C-19.44985065 36.58363415 -22.52774123 35.75056511 -26.8125 32.125 C-28.91517836 27.91964329 -27.99742744 22.37031241 -28 17.75 C-28.01224609 16.60015625 -28.02449219 15.4503125 -28.03710938 14.265625 C-28.03904297 13.15960938 -28.04097656 12.05359375 -28.04296875 10.9140625 C-28.04707764 9.90037598 -28.05118652 8.88668945 -28.05541992 7.84228516 C-27.80536306 5.04516666 -27.35473103 3.45347283 -25.8125 1.125 C-18.50542955 -3.52495393 -7.76391539 -3.74181482 0 0 Z M-13.8125 10.125 C-15.15151792 11.23626659 -15.15151792 11.23626659 -14.91015625 14.06640625 C-14.89855469 15.26136719 -14.88695312 16.45632812 -14.875 17.6875 C-14.86597656 18.88503906 -14.85695313 20.08257812 -14.84765625 21.31640625 C-14.83605469 22.24324219 -14.82445312 23.17007813 -14.8125 24.125 C-11.76336772 25.13611093 -11.76336772 25.13611093 -8.8125 24.125 C-8.8125 19.835 -8.8125 15.545 -8.8125 11.125 C-10.4625 10.795 -12.1125 10.465 -13.8125 10.125 Z " fill="#BF73DF" transform="translate(589.8125,153.875)"/>
<path d="M0 0 C4.29 0 8.58 0 13 0 C13.04898437 0.9178125 13.09796875 1.835625 13.1484375 2.78125 C13.5534256 9.42864086 14.08416358 15.61387859 16 22 C17.61635488 19.13026116 18.2733418 16.95535797 18.4140625 13.671875 C18.45273437 12.87265625 18.49140625 12.0734375 18.53125 11.25 C18.5621875 10.425 18.593125 9.6 18.625 8.75 C18.66367187 7.90953125 18.70234375 7.0690625 18.7421875 6.203125 C18.83615836 4.13576618 18.91915564 2.06791373 19 0 C22.96 0 26.92 0 31 0 C34.17340988 6.34681976 32.97018107 18.36584811 30.953125 25.078125 C27.89266304 33.10733696 27.89266304 33.10733696 25 36 C19.00193424 37.14390972 12.95236905 37.39310765 7 36 C0.85523553 29.85523553 -0.27816079 20.16077422 -0.34716797 11.86669922 C-0.29708632 7.90601695 -0.17914442 3.95710118 0 0 Z " fill="#BE72DF" transform="translate(446,153)"/>
<path d="M0 0 C8.91 0 17.82 0 27 0 C27 3.3 27 6.6 27 10 C26 11 26 11 22.83984375 11.09765625 C20.90818359 11.08025391 20.90818359 11.08025391 18.9375 11.0625 C17.64714844 11.05347656 16.35679687 11.04445312 15.02734375 11.03515625 C14.02832031 11.02355469 13.02929688 11.01195312 12 11 C12 11.66 12 12.32 12 13 C15.63 13 19.26 13 23 13 C23.09765625 19.93359375 23.09765625 19.93359375 23 22 C22 23 22 23 19.71484375 23.09765625 C18.34005859 23.08025391 18.34005859 23.08025391 16.9375 23.0625 C16.01839844 23.05347656 15.09929687 23.04445312 14.15234375 23.03515625 C13.44207031 23.02355469 12.73179687 23.01195312 12 23 C12 23.66 12 24.32 12 25 C12.99902344 24.98839844 13.99804688 24.97679687 15.02734375 24.96484375 C16.31769531 24.95582031 17.60804688 24.94679687 18.9375 24.9375 C20.22527344 24.92589844 21.51304687 24.91429687 22.83984375 24.90234375 C26 25 26 25 27 26 C27.09823937 27.66429051 27.12973631 29.33281931 27.125 31 C27.12886719 32.36125 27.12886719 32.36125 27.1328125 33.75 C27 36 27 36 26 37 C21.86037717 37.25301239 17.70894004 37.18522549 13.5625 37.1875 C12.39138672 37.19974609 11.22027344 37.21199219 10.01367188 37.22460938 C8.89669922 37.22654297 7.77972656 37.22847656 6.62890625 37.23046875 C5.59838135 37.23457764 4.56785645 37.23868652 3.50610352 37.24291992 C1 37 1 37 -1 35 C-1.24291992 32.20605469 -1.24291992 32.20605469 -1.23046875 28.671875 C-1.22853516 27.39699219 -1.22660156 26.12210938 -1.22460938 24.80859375 C-1.21840576 24.1419873 -1.21220215 23.47538086 -1.20581055 22.78857422 C-1.18769473 20.77167956 -1.1853 18.75524834 -1.18554688 16.73828125 C-1.15935376 10.95833398 -0.95488429 5.72930577 0 0 Z " fill="#BF73DE" transform="translate(411,153)"/>
<path d="M0 0 C8.91 0 17.82 0 27 0 C27 3.3 27 6.6 27 10 C26 11 26 11 22.83984375 11.09765625 C20.90818359 11.08025391 20.90818359 11.08025391 18.9375 11.0625 C17.64714844 11.05347656 16.35679687 11.04445312 15.02734375 11.03515625 C14.02832031 11.02355469 13.02929688 11.01195312 12 11 C12 11.66 12 12.32 12 13 C15.63 13 19.26 13 23 13 C23 16.3 23 19.6 23 23 C19.37 23 15.74 23 12 23 C12 23.66 12 24.32 12 25 C16.62 25 21.24 25 26 25 C27.20272819 27.40545638 27.10071472 28.94996953 27.0625 31.625 C27.05347656 32.44226563 27.04445313 33.25953125 27.03515625 34.1015625 C27.02355469 34.72804687 27.01195312 35.35453125 27 36 C18.01635069 36.93684239 9.03005968 37.40557732 0 37 C-1.86221954 35.13778046 -1.13050173 32.0366721 -1.1328125 29.55078125 C-1.13376923 28.90054489 -1.13472595 28.25030853 -1.13571167 27.58036804 C-1.13639374 26.19916691 -1.13453759 24.8179626 -1.13037109 23.43676758 C-1.12506607 21.3386293 -1.13029262 19.24070932 -1.13671875 17.14257812 C-1.13605713 15.7994787 -1.13477424 14.45637941 -1.1328125 13.11328125 C-1.13168457 11.89423096 -1.13055664 10.67518066 -1.12939453 9.41918945 C-1 6 -1 6 0 0 Z " fill="#BE73DE" transform="translate(488,153)"/>
<path d="M0 0 C8.91 0 17.82 0 27 0 C27 3.3 27 6.6 27 10 C26 11 26 11 22.83984375 11.09765625 C20.90818359 11.08025391 20.90818359 11.08025391 18.9375 11.0625 C17.64714844 11.05347656 16.35679687 11.04445312 15.02734375 11.03515625 C14.02832031 11.02355469 13.02929688 11.01195312 12 11 C12 11.66 12 12.32 12 13 C15.63 13 19.26 13 23 13 C23 16.3 23 19.6 23 23 C19.37 23 15.74 23 12 23 C12 23.66 12 24.32 12 25 C12.66386719 24.98839844 13.32773437 24.97679687 14.01171875 24.96484375 C22.78207381 24.87521968 22.78207381 24.87521968 27 26 C27.02688151 27.64574566 27.04634123 29.29161413 27.0625 30.9375 C27.07410156 31.85402344 27.08570313 32.77054688 27.09765625 33.71484375 C27 36 27 36 26 37 C23.32265208 37.10159579 20.67723451 37.14104314 18 37.125 C17.22849609 37.12234131 16.45699219 37.11968262 15.66210938 37.11694336 C0.99492275 36.99492275 0.99492275 36.99492275 -1 35 C-1.10270575 31.94903507 -1.14053804 28.92600427 -1.125 25.875 C-1.12306641 24.9787793 -1.12113281 24.08255859 -1.11914062 23.15917969 C-1.06945252 15.39955374 -0.61872143 7.73401791 0 0 Z " fill="#BE73DE" transform="translate(688,153)"/>
<path d="M0 0 C3.74993479 -0.05811773 7.49975352 -0.09363593 11.25 -0.125 C12.84521484 -0.15013672 12.84521484 -0.15013672 14.47265625 -0.17578125 C15.49746094 -0.18222656 16.52226563 -0.18867188 17.578125 -0.1953125 C18.52075195 -0.20578613 19.46337891 -0.21625977 20.43457031 -0.22705078 C23.1655208 0.01464925 24.71921031 0.49921793 27 2 C29.45802095 5.68703143 29.40285195 8.60174091 29.4375 12.875 C29.48680664 13.93654297 29.48680664 13.93654297 29.53710938 15.01953125 C29.57657351 18.87266619 29.13608877 20.81132015 26.8671875 23.95703125 C23.56397064 26.31068577 21.70374252 26.6800964 17.6875 26.8125 C16.08455078 26.88404297 16.08455078 26.88404297 14.44921875 26.95703125 C13.64097656 26.97121094 12.83273437 26.98539063 12 27 C12.01160156 27.63808594 12.02320313 28.27617187 12.03515625 28.93359375 C12.04417969 29.75988281 12.05320312 30.58617187 12.0625 31.4375 C12.07410156 32.26121094 12.08570313 33.08492187 12.09765625 33.93359375 C12 36 12 36 11 37 C9.16884117 37.09851171 7.33380067 37.12972629 5.5 37.125 C4.4996875 37.12757813 3.499375 37.13015625 2.46875 37.1328125 C0 37 0 37 -1 36 C-1.099874 34.27576012 -1.13080854 32.54744132 -1.1328125 30.8203125 C-1.13410156 29.74523437 -1.13539063 28.67015625 -1.13671875 27.5625 C-1.13091797 25.8609375 -1.13091797 25.8609375 -1.125 24.125 C-1.12886719 23.02929688 -1.13273438 21.93359375 -1.13671875 20.8046875 C-1.12843789 13.81564524 -0.76568461 6.94697449 0 0 Z M13 11 C13 12.65 13 14.3 13 16 C14.32 15.67 15.64 15.34 17 15 C16.67 13.68 16.34 12.36 16 11 C15.01 11 14.02 11 13 11 Z " fill="#BF73DF" transform="translate(604,153)"/>
<path d="M0 0 C4.29 0 8.58 0 13 0 C13 8.25 13 16.5 13 25 C14.32 25 15.64 25 17 25 C16.979375 23.88625 16.95875 22.7725 16.9375 21.625 C17 18 17 18 18 16 C21.63 16 25.26 16 29 16 C30.23915102 19.71745307 30.18407713 23.19123381 30.1875 27.0625 C30.19974609 27.79533203 30.21199219 28.52816406 30.22460938 29.28320312 C30.22986299 31.19026507 30.12218272 33.09684886 30 35 C28 37 28 37 25.31030273 37.24291992 C24.19598877 37.23881104 23.0816748 37.23470215 21.93359375 37.23046875 C20.72638672 37.22853516 19.51917969 37.22660156 18.27539062 37.22460938 C17.00888672 37.21236328 15.74238281 37.20011719 14.4375 37.1875 C13.16712891 37.18685547 11.89675781 37.18621094 10.58789062 37.18554688 C1.14010053 37.14010053 1.14010053 37.14010053 0 36 C-0.08855161 33.3337397 -0.11524673 30.69352886 -0.09765625 28.02734375 C-0.0962413 27.22970108 -0.09482635 26.43205841 -0.09336853 25.61024475 C-0.08775316 23.05262565 -0.07519812 20.49509282 -0.0625 17.9375 C-0.05748698 16.20768355 -0.05292373 14.47786574 -0.04882812 12.74804688 C-0.03777875 8.49866447 -0.02050386 4.24934688 0 0 Z " fill="#BE73DE" transform="translate(524,153)"/>
<path d="M0 0 C4.25414623 -0.02465622 8.50825498 -0.04283899 12.76245117 -0.05493164 C14.21070073 -0.05997101 15.65894517 -0.06680253 17.10717773 -0.07543945 C19.18474588 -0.08752247 21.26224697 -0.09323211 23.33984375 -0.09765625 C24.59144287 -0.10289307 25.84304199 -0.10812988 27.13256836 -0.11352539 C30 0 30 0 31 1 C30.91062197 2.52519276 30.75462854 4.04681929 30.5625 5.5625 C30.46066406 6.38878906 30.35882812 7.21507812 30.25390625 8.06640625 C30.17011719 8.70449219 30.08632813 9.34257812 30 10 C27.36 10.33 24.72 10.66 22 11 C22.00785522 12.07483643 22.00785522 12.07483643 22.01586914 13.17138672 C22.03660667 16.40591562 22.04964984 19.64043056 22.0625 22.875 C22.07087891 24.00292969 22.07925781 25.13085938 22.08789062 26.29296875 C22.09272461 27.90751953 22.09272461 27.90751953 22.09765625 29.5546875 C22.10551147 31.04718018 22.10551147 31.04718018 22.11352539 32.56982422 C22 35 22 35 21 37 C17.04 37 13.08 37 9 37 C7.69524382 34.39048764 7.88698428 32.47298715 7.90234375 29.5546875 C7.90556641 28.47832031 7.90878906 27.40195313 7.91210938 26.29296875 C7.92048828 25.16503906 7.92886719 24.03710938 7.9375 22.875 C7.94201172 21.73933594 7.94652344 20.60367188 7.95117188 19.43359375 C7.96298385 16.62234362 7.97945493 13.8111977 8 11 C5.36 11 2.72 11 0 11 C-0.69584017 6.97959015 -1.1700097 3.91736581 0 0 Z " fill="#BE72DF" transform="translate(764,153)"/>
<path d="M0 0 C4.05676218 2.35529965 7.29804992 4.49458883 8.8828125 9.05078125 C9.49809836 14.20672101 9.79422191 18.48836512 7.1328125 23.05078125 C6.3903125 23.71078125 5.6478125 24.37078125 4.8828125 25.05078125 C4.2846875 25.62828125 3.6865625 26.20578125 3.0703125 26.80078125 C-0.58028055 28.88683442 -4.01805335 29.46182843 -8.171875 28.6484375 C-13.43085058 26.97151887 -16.01070258 24.56930477 -19.1171875 20.05078125 C-20.5924727 15.62492564 -21.18947342 11.38485189 -19.2109375 7.078125 C-14.82099167 0.45099524 -7.87475796 -3.53056492 0 0 Z " fill="#424242" transform="translate(249.1171875,148.94921875)"/>
<path d="M0 0 C4.23312962 1.67074441 7.73605332 3.97520591 10 8 C11.77597344 12.68211179 11.52100916 17.52380739 9.875 22.1875 C6.90577469 26.64133796 3.71216252 28.49269259 -1.375 30 C-6.68035459 30 -10.60372805 27.99406082 -14.65234375 24.625 C-17.1895376 21.56565901 -17.61226805 17.87085731 -18 14 C-17.30865539 8.17295254 -15.06917384 5.66074368 -10.65625 2.1640625 C-7.04038984 -0.37727318 -4.40472507 -0.36104304 0 0 Z " fill="#414141" transform="translate(178,148)"/>
<path d="M0 0 C1.16015625 0.50660156 1.16015625 0.50660156 2.34375 1.0234375 C3.90609375 1.69246094 3.90609375 1.69246094 5.5 2.375 C6.5209375 2.81585938 7.541875 3.25671875 8.59375 3.7109375 C15.6746042 6.39061856 21.98337057 7.38823221 29.5 7.375 C30.36568604 7.37483887 31.23137207 7.37467773 32.12329102 7.37451172 C41.28789584 7.21480568 50.26933837 5.54511242 58.69140625 1.8046875 C61.28402931 0.90099825 62.46299949 1.06037018 65 2 C56.44070036 12.91168993 46.81890572 19.04049379 33 21 C22.74263778 20.67034435 14.83715564 16.2467705 7 10 C6.01 9.2575 5.02 8.515 4 7.75 C3.34 7.1725 2.68 6.595 2 6 C2 5.34 2 4.68 2 4 C1.34 4 0.68 4 0 4 C0 2.68 0 1.36 0 0 Z " fill="#424242" transform="translate(177,196)"/>
<path d="M0 0 C0.66 0 1.32 0 2 0 C2.33 5.94 2.66 11.88 3 18 C2.01 17.67 1.02 17.34 0 17 C0 11.39 0 5.78 0 0 Z " fill="#717171" transform="translate(491,99)"/>
<path d="M0 0 C0.33 0 0.66 0 1 0 C1 2.64 1 5.28 1 8 C-1.64 8 -4.28 8 -7 8 C-7 7.34 -7 6.68 -7 6 C-5.02 6 -3.04 6 -1 6 C-0.67 4.02 -0.34 2.04 0 0 Z " fill="#C682E1" transform="translate(510,168)"/>
<path d="M0 0 C1.65 0.99 3.3 1.98 5 3 C4.67 3.99 4.34 4.98 4 6 C3.34 6 2.68 6 2 6 C2 5.34 2 4.68 2 4 C1.34 4 0.68 4 0 4 C0 2.68 0 1.36 0 0 Z " fill="#6D6D6D" transform="translate(177,196)"/>
</svg>
